<mxfile host="app.diagrams.net" agent="Mozilla/5.0 (X11; Ubuntu; Linux x86_64; rv:139.0) Gecko/20100101 Firefox/139.0" version="27.1.6">
  <diagram id="naa_YGCs2bm0aunMuVge" name="Page-1">
    <mxGraphModel dx="1389" dy="779" grid="1" gridSize="10" guides="1" tooltips="1" connect="1" arrows="1" fold="1" page="1" pageScale="1" pageWidth="850" pageHeight="1100" math="0" shadow="0">
      <root>
        <mxCell id="0" />
        <mxCell id="1" parent="0" />
        <mxCell id="hO5_n6e-DhKpbNlHHBjC-3" value="" style="group" parent="1" vertex="1" connectable="0">
          <mxGeometry x="220" y="232" width="140" height="168" as="geometry" />
        </mxCell>
        <mxCell id="RRKZJ2GyWsxU2LrKrGIv-1" value="" style="rounded=0;whiteSpace=wrap;html=1;strokeColor=#62A0D6;" parent="hO5_n6e-DhKpbNlHHBjC-3" vertex="1">
          <mxGeometry width="140" height="168" as="geometry" />
        </mxCell>
        <mxCell id="RRKZJ2GyWsxU2LrKrGIv-2" value="" style="rounded=0;whiteSpace=wrap;html=1;strokeColor=none;fillColor=#A1B119;" parent="hO5_n6e-DhKpbNlHHBjC-3" vertex="1">
          <mxGeometry x="20" y="80" width="90" height="10" as="geometry" />
        </mxCell>
        <mxCell id="RRKZJ2GyWsxU2LrKrGIv-3" value="" style="rounded=0;whiteSpace=wrap;html=1;strokeColor=none;fillColor=#62A0D6;" parent="hO5_n6e-DhKpbNlHHBjC-3" vertex="1">
          <mxGeometry x="20" y="10" width="60" height="10" as="geometry" />
        </mxCell>
        <mxCell id="RRKZJ2GyWsxU2LrKrGIv-4" value="" style="rounded=0;whiteSpace=wrap;html=1;strokeColor=none;fillColor=#62A0D6;" parent="hO5_n6e-DhKpbNlHHBjC-3" vertex="1">
          <mxGeometry x="20" y="38" width="70" height="10" as="geometry" />
        </mxCell>
        <mxCell id="RRKZJ2GyWsxU2LrKrGIv-5" value="" style="rounded=0;whiteSpace=wrap;html=1;strokeColor=none;fillColor=#62A0D6;" parent="hO5_n6e-DhKpbNlHHBjC-3" vertex="1">
          <mxGeometry x="20" y="66" width="60" height="10" as="geometry" />
        </mxCell>
        <mxCell id="RRKZJ2GyWsxU2LrKrGIv-7" value="" style="rounded=0;whiteSpace=wrap;html=1;strokeColor=none;fillColor=#62A0D6;" parent="hO5_n6e-DhKpbNlHHBjC-3" vertex="1">
          <mxGeometry x="20" y="122" width="70" height="10" as="geometry" />
        </mxCell>
        <mxCell id="RRKZJ2GyWsxU2LrKrGIv-8" value="" style="rounded=0;whiteSpace=wrap;html=1;strokeColor=none;fillColor=#62A0D6;" parent="hO5_n6e-DhKpbNlHHBjC-3" vertex="1">
          <mxGeometry x="20" y="136" width="70" height="10" as="geometry" />
        </mxCell>
        <mxCell id="RRKZJ2GyWsxU2LrKrGIv-9" value="" style="rounded=0;whiteSpace=wrap;html=1;strokeColor=none;fillColor=#A1B119;" parent="hO5_n6e-DhKpbNlHHBjC-3" vertex="1">
          <mxGeometry x="20" y="24" width="80" height="10" as="geometry" />
        </mxCell>
        <mxCell id="RRKZJ2GyWsxU2LrKrGIv-10" value="" style="rounded=0;whiteSpace=wrap;html=1;strokeColor=none;fillColor=#A1B119;" parent="hO5_n6e-DhKpbNlHHBjC-3" vertex="1">
          <mxGeometry x="20" y="52" width="50" height="10" as="geometry" />
        </mxCell>
        <mxCell id="RRKZJ2GyWsxU2LrKrGIv-13" value="" style="rounded=0;whiteSpace=wrap;html=1;strokeColor=none;fillColor=#A1B119;" parent="hO5_n6e-DhKpbNlHHBjC-3" vertex="1">
          <mxGeometry x="20" y="94" width="40" height="10" as="geometry" />
        </mxCell>
        <mxCell id="RRKZJ2GyWsxU2LrKrGIv-14" value="" style="rounded=0;whiteSpace=wrap;html=1;strokeColor=none;fillColor=#A1B119;" parent="hO5_n6e-DhKpbNlHHBjC-3" vertex="1">
          <mxGeometry x="20" y="108" width="90" height="10" as="geometry" />
        </mxCell>
        <mxCell id="RRKZJ2GyWsxU2LrKrGIv-15" value="" style="rounded=0;whiteSpace=wrap;html=1;strokeColor=none;fillColor=#A1B119;" parent="hO5_n6e-DhKpbNlHHBjC-3" vertex="1">
          <mxGeometry x="20" y="150" width="50" height="10" as="geometry" />
        </mxCell>
        <mxCell id="dU-f3JVg-k6u3ww8uDSU-36" value="" style="endArrow=none;html=1;rounded=0;strokeColor=#808080;" edge="1" parent="1">
          <mxGeometry width="50" height="50" relative="1" as="geometry">
            <mxPoint x="120" y="420" as="sourcePoint" />
            <mxPoint x="750" y="420" as="targetPoint" />
          </mxGeometry>
        </mxCell>
        <mxCell id="dU-f3JVg-k6u3ww8uDSU-37" value="" style="endArrow=none;html=1;rounded=0;strokeColor=#808080;" edge="1" parent="1">
          <mxGeometry width="50" height="50" relative="1" as="geometry">
            <mxPoint x="440" y="640" as="sourcePoint" />
            <mxPoint x="440" y="180" as="targetPoint" />
          </mxGeometry>
        </mxCell>
        <mxCell id="dU-f3JVg-k6u3ww8uDSU-38" value="Direct modification:&lt;br&gt;solver + preCICE API calls" style="text;html=1;align=center;verticalAlign=middle;whiteSpace=wrap;rounded=0;fontStyle=1" vertex="1" parent="1">
          <mxGeometry x="210" y="190" width="160" height="30" as="geometry" />
        </mxCell>
        <mxCell id="dU-f3JVg-k6u3ww8uDSU-39" value="Adapter class:&lt;br&gt;solver calling adapter" style="text;html=1;align=center;verticalAlign=middle;whiteSpace=wrap;rounded=0;fontStyle=1" vertex="1" parent="1">
          <mxGeometry x="517.5" y="190" width="160" height="30" as="geometry" />
        </mxCell>
        <mxCell id="dU-f3JVg-k6u3ww8uDSU-40" value="Plugin:&lt;br&gt;solver with callback functionality" style="text;html=1;align=center;verticalAlign=middle;whiteSpace=wrap;rounded=0;fontStyle=1" vertex="1" parent="1">
          <mxGeometry x="499.38" y="430" width="196.25" height="30" as="geometry" />
        </mxCell>
        <mxCell id="dU-f3JVg-k6u3ww8uDSU-42" value="" style="rounded=0;whiteSpace=wrap;html=1;strokeColor=#62A0D6;" vertex="1" parent="1">
          <mxGeometry x="310" y="470" width="110" height="121" as="geometry" />
        </mxCell>
        <mxCell id="dU-f3JVg-k6u3ww8uDSU-43" value="" style="rounded=0;whiteSpace=wrap;html=1;strokeColor=#F36221;" vertex="1" parent="1">
          <mxGeometry x="140" y="470" width="120" height="161" as="geometry" />
        </mxCell>
        <mxCell id="dU-f3JVg-k6u3ww8uDSU-45" value="" style="rounded=0;whiteSpace=wrap;html=1;strokeColor=none;fillColor=#62A0D6;" vertex="1" parent="1">
          <mxGeometry x="330" y="497" width="70" height="33" as="geometry" />
        </mxCell>
        <mxCell id="dU-f3JVg-k6u3ww8uDSU-49" value="" style="rounded=0;whiteSpace=wrap;html=1;strokeColor=none;fillColor=#62A0D6;" vertex="1" parent="1">
          <mxGeometry x="330" y="569" width="70" height="10" as="geometry" />
        </mxCell>
        <mxCell id="dU-f3JVg-k6u3ww8uDSU-52" value="" style="rounded=0;whiteSpace=wrap;html=1;strokeColor=none;fillColor=#F36221;" vertex="1" parent="1">
          <mxGeometry x="155" y="497" width="80" height="10" as="geometry" />
        </mxCell>
        <mxCell id="dU-f3JVg-k6u3ww8uDSU-53" value="" style="rounded=0;whiteSpace=wrap;html=1;strokeColor=none;fillColor=#A1B119;" vertex="1" parent="1">
          <mxGeometry x="155" y="511" width="75" height="10" as="geometry" />
        </mxCell>
        <mxCell id="dU-f3JVg-k6u3ww8uDSU-69" style="edgeStyle=orthogonalEdgeStyle;rounded=0;orthogonalLoop=1;jettySize=auto;html=1;exitX=1;exitY=0.5;exitDx=0;exitDy=0;entryX=0;entryY=0.5;entryDx=0;entryDy=0;" edge="1" parent="1" source="dU-f3JVg-k6u3ww8uDSU-54" target="dU-f3JVg-k6u3ww8uDSU-45">
          <mxGeometry relative="1" as="geometry" />
        </mxCell>
        <mxCell id="dU-f3JVg-k6u3ww8uDSU-54" value="" style="rounded=0;whiteSpace=wrap;html=1;strokeColor=none;fillColor=#62A0D6;" vertex="1" parent="1">
          <mxGeometry x="155" y="525" width="90" height="10" as="geometry" />
        </mxCell>
        <mxCell id="dU-f3JVg-k6u3ww8uDSU-55" value="" style="rounded=0;whiteSpace=wrap;html=1;strokeColor=none;fillColor=#A1B119;" vertex="1" parent="1">
          <mxGeometry x="155" y="539" width="40" height="10" as="geometry" />
        </mxCell>
        <mxCell id="dU-f3JVg-k6u3ww8uDSU-70" style="edgeStyle=orthogonalEdgeStyle;rounded=0;orthogonalLoop=1;jettySize=auto;html=1;exitX=1;exitY=0.5;exitDx=0;exitDy=0;entryX=0;entryY=0.5;entryDx=0;entryDy=0;" edge="1" parent="1" source="dU-f3JVg-k6u3ww8uDSU-56" target="dU-f3JVg-k6u3ww8uDSU-65">
          <mxGeometry relative="1" as="geometry">
            <mxPoint x="330" y="560" as="targetPoint" />
          </mxGeometry>
        </mxCell>
        <mxCell id="dU-f3JVg-k6u3ww8uDSU-56" value="" style="rounded=0;whiteSpace=wrap;html=1;strokeColor=none;fillColor=#62A0D6;" vertex="1" parent="1">
          <mxGeometry x="155" y="553" width="90" height="10" as="geometry" />
        </mxCell>
        <mxCell id="dU-f3JVg-k6u3ww8uDSU-57" value="" style="rounded=0;whiteSpace=wrap;html=1;strokeColor=none;fillColor=#A1B119;" vertex="1" parent="1">
          <mxGeometry x="155" y="567" width="50" height="10" as="geometry" />
        </mxCell>
        <mxCell id="dU-f3JVg-k6u3ww8uDSU-58" value="Adapter wrapper" style="text;html=1;strokeColor=none;fillColor=none;align=center;verticalAlign=middle;whiteSpace=wrap;rounded=0;fontSize=10;" vertex="1" parent="1">
          <mxGeometry x="162" y="480" width="76" height="10" as="geometry" />
        </mxCell>
        <mxCell id="dU-f3JVg-k6u3ww8uDSU-62" value="" style="rounded=0;whiteSpace=wrap;html=1;strokeColor=none;fillColor=#A1B119;" vertex="1" parent="1">
          <mxGeometry x="155" y="609" width="50" height="10" as="geometry" />
        </mxCell>
        <mxCell id="dU-f3JVg-k6u3ww8uDSU-71" style="edgeStyle=orthogonalEdgeStyle;rounded=0;orthogonalLoop=1;jettySize=auto;html=1;exitX=1;exitY=0.5;exitDx=0;exitDy=0;entryX=0;entryY=0.5;entryDx=0;entryDy=0;" edge="1" parent="1" source="dU-f3JVg-k6u3ww8uDSU-63" target="dU-f3JVg-k6u3ww8uDSU-49">
          <mxGeometry relative="1" as="geometry" />
        </mxCell>
        <mxCell id="dU-f3JVg-k6u3ww8uDSU-63" value="" style="rounded=0;whiteSpace=wrap;html=1;strokeColor=none;fillColor=#62A0D6;" vertex="1" parent="1">
          <mxGeometry x="155" y="595" width="90" height="10" as="geometry" />
        </mxCell>
        <mxCell id="dU-f3JVg-k6u3ww8uDSU-64" value="" style="rounded=0;whiteSpace=wrap;html=1;strokeColor=none;fillColor=#F36221;" vertex="1" parent="1">
          <mxGeometry x="155" y="581" width="40" height="10" as="geometry" />
        </mxCell>
        <mxCell id="dU-f3JVg-k6u3ww8uDSU-65" value="" style="rounded=0;whiteSpace=wrap;html=1;strokeColor=none;fillColor=#62A0D6;" vertex="1" parent="1">
          <mxGeometry x="330" y="541" width="60" height="19" as="geometry" />
        </mxCell>
        <mxCell id="RRKZJ2GyWsxU2LrKrGIv-16" value="" style="rounded=0;whiteSpace=wrap;html=1;strokeColor=#62A0D6;" parent="1" vertex="1">
          <mxGeometry x="462.5" y="232" width="140" height="100" as="geometry" />
        </mxCell>
        <mxCell id="RRKZJ2GyWsxU2LrKrGIv-17" value="" style="rounded=0;whiteSpace=wrap;html=1;strokeColor=#F36221;" parent="1" vertex="1">
          <mxGeometry x="612.5" y="260" width="120" height="120" as="geometry" />
        </mxCell>
        <mxCell id="RRKZJ2GyWsxU2LrKrGIv-18" value="" style="rounded=0;whiteSpace=wrap;html=1;strokeColor=none;fillColor=#62A0D6;" parent="1" vertex="1">
          <mxGeometry x="482.5" y="242" width="60" height="10" as="geometry" />
        </mxCell>
        <mxCell id="RRKZJ2GyWsxU2LrKrGIv-19" value="" style="rounded=0;whiteSpace=wrap;html=1;strokeColor=none;fillColor=#62A0D6;" parent="1" vertex="1">
          <mxGeometry x="482.5" y="255" width="70" height="10" as="geometry" />
        </mxCell>
        <mxCell id="RRKZJ2GyWsxU2LrKrGIv-20" value="" style="rounded=0;whiteSpace=wrap;html=1;strokeColor=none;fillColor=#62A0D6;" parent="1" vertex="1">
          <mxGeometry x="482.5" y="268" width="60" height="10" as="geometry" />
        </mxCell>
        <mxCell id="RRKZJ2GyWsxU2LrKrGIv-21" value="" style="rounded=0;whiteSpace=wrap;html=1;strokeColor=none;fillColor=#62A0D6;" parent="1" vertex="1">
          <mxGeometry x="482.5" y="299" width="70" height="10" as="geometry" />
        </mxCell>
        <mxCell id="RRKZJ2GyWsxU2LrKrGIv-22" value="" style="rounded=0;whiteSpace=wrap;html=1;strokeColor=none;fillColor=#62A0D6;" parent="1" vertex="1">
          <mxGeometry x="482.5" y="312" width="70" height="10" as="geometry" />
        </mxCell>
        <mxCell id="RRKZJ2GyWsxU2LrKrGIv-31" style="edgeStyle=orthogonalEdgeStyle;rounded=0;orthogonalLoop=1;jettySize=auto;html=1;entryX=0.5;entryY=0;entryDx=0;entryDy=0;exitX=1;exitY=0.25;exitDx=0;exitDy=0;" parent="1" source="RRKZJ2GyWsxU2LrKrGIv-23" target="RRKZJ2GyWsxU2LrKrGIv-17" edge="1">
          <mxGeometry relative="1" as="geometry">
            <mxPoint x="531.5" y="286" as="sourcePoint" />
          </mxGeometry>
        </mxCell>
        <mxCell id="RRKZJ2GyWsxU2LrKrGIv-23" value="" style="rounded=0;whiteSpace=wrap;html=1;strokeColor=none;fillColor=#F36221;" parent="1" vertex="1">
          <mxGeometry x="482.5" y="281" width="51" height="15" as="geometry" />
        </mxCell>
        <mxCell id="RRKZJ2GyWsxU2LrKrGIv-24" value="" style="rounded=0;whiteSpace=wrap;html=1;strokeColor=none;fillColor=#A1B119;" parent="1" vertex="1">
          <mxGeometry x="627.5" y="286" width="80" height="10" as="geometry" />
        </mxCell>
        <mxCell id="RRKZJ2GyWsxU2LrKrGIv-25" value="" style="rounded=0;whiteSpace=wrap;html=1;strokeColor=none;fillColor=#A1B119;" parent="1" vertex="1">
          <mxGeometry x="627.5" y="300" width="50" height="10" as="geometry" />
        </mxCell>
        <mxCell id="RRKZJ2GyWsxU2LrKrGIv-26" value="" style="rounded=0;whiteSpace=wrap;html=1;strokeColor=none;fillColor=#A1B119;" parent="1" vertex="1">
          <mxGeometry x="627.5" y="314" width="90" height="10" as="geometry" />
        </mxCell>
        <mxCell id="RRKZJ2GyWsxU2LrKrGIv-27" value="" style="rounded=0;whiteSpace=wrap;html=1;strokeColor=none;fillColor=#A1B119;" parent="1" vertex="1">
          <mxGeometry x="627.5" y="328" width="40" height="10" as="geometry" />
        </mxCell>
        <mxCell id="RRKZJ2GyWsxU2LrKrGIv-28" value="" style="rounded=0;whiteSpace=wrap;html=1;strokeColor=none;fillColor=#A1B119;" parent="1" vertex="1">
          <mxGeometry x="627.5" y="342" width="90" height="10" as="geometry" />
        </mxCell>
        <mxCell id="RRKZJ2GyWsxU2LrKrGIv-29" value="" style="rounded=0;whiteSpace=wrap;html=1;strokeColor=none;fillColor=#A1B119;" parent="1" vertex="1">
          <mxGeometry x="627.5" y="356" width="50" height="10" as="geometry" />
        </mxCell>
        <mxCell id="RRKZJ2GyWsxU2LrKrGIv-55" value="&lt;font style=&quot;font-size: 10px;&quot;&gt;Adapter&amp;nbsp;&lt;/font&gt;&lt;font style=&quot;font-size: 10px;&quot;&gt;class&lt;/font&gt;" style="text;html=1;strokeColor=none;fillColor=none;align=center;verticalAlign=middle;whiteSpace=wrap;rounded=0;fontSize=10;" parent="1" vertex="1">
          <mxGeometry x="628.75" y="265" width="87.5" height="10" as="geometry" />
        </mxCell>
        <mxCell id="RRKZJ2GyWsxU2LrKrGIv-72" value="&lt;font style=&quot;font-size: 10px;&quot;&gt;Adapter&lt;br style=&quot;font-size: 10px;&quot;&gt;&lt;/font&gt;" style="text;html=1;strokeColor=none;fillColor=none;align=center;verticalAlign=middle;whiteSpace=wrap;rounded=0;fontSize=10;" parent="1" vertex="1">
          <mxGeometry x="477.5" y="279.5" width="60" height="17" as="geometry" />
        </mxCell>
        <mxCell id="dU-f3JVg-k6u3ww8uDSU-66" value="Solver library" style="text;html=1;strokeColor=none;fillColor=none;align=center;verticalAlign=middle;whiteSpace=wrap;rounded=0;fontSize=10;" vertex="1" parent="1">
          <mxGeometry x="327" y="480" width="76" height="10" as="geometry" />
        </mxCell>
        <mxCell id="dU-f3JVg-k6u3ww8uDSU-77" value="" style="group" vertex="1" connectable="0" parent="1">
          <mxGeometry x="470" y="471" width="255" height="169" as="geometry" />
        </mxCell>
        <mxCell id="RRKZJ2GyWsxU2LrKrGIv-66" value="" style="rounded=0;whiteSpace=wrap;html=1;strokeColor=#000000;fillColor=#B3B3B3;" parent="dU-f3JVg-k6u3ww8uDSU-77" vertex="1">
          <mxGeometry x="27" y="117" width="40" height="30" as="geometry" />
        </mxCell>
        <mxCell id="RRKZJ2GyWsxU2LrKrGIv-65" value="" style="rounded=0;whiteSpace=wrap;html=1;strokeColor=#000000;fillColor=#B3B3B3;" parent="dU-f3JVg-k6u3ww8uDSU-77" vertex="1">
          <mxGeometry x="20" y="111" width="40" height="30" as="geometry" />
        </mxCell>
        <mxCell id="RRKZJ2GyWsxU2LrKrGIv-33" value="" style="rounded=0;whiteSpace=wrap;html=1;strokeColor=#62A0D6;" parent="dU-f3JVg-k6u3ww8uDSU-77" vertex="1">
          <mxGeometry x="5" width="120" height="100" as="geometry" />
        </mxCell>
        <mxCell id="RRKZJ2GyWsxU2LrKrGIv-34" value="" style="rounded=0;whiteSpace=wrap;html=1;strokeColor=none;fillColor=#62A0D6;" parent="dU-f3JVg-k6u3ww8uDSU-77" vertex="1">
          <mxGeometry x="15" y="10" width="60" height="10" as="geometry" />
        </mxCell>
        <mxCell id="RRKZJ2GyWsxU2LrKrGIv-35" value="" style="rounded=0;whiteSpace=wrap;html=1;strokeColor=none;fillColor=#62A0D6;" parent="dU-f3JVg-k6u3ww8uDSU-77" vertex="1">
          <mxGeometry x="15" y="23" width="70" height="10" as="geometry" />
        </mxCell>
        <mxCell id="RRKZJ2GyWsxU2LrKrGIv-36" value="" style="rounded=0;whiteSpace=wrap;html=1;strokeColor=none;fillColor=#62A0D6;" parent="dU-f3JVg-k6u3ww8uDSU-77" vertex="1">
          <mxGeometry x="15" y="36" width="60" height="10" as="geometry" />
        </mxCell>
        <mxCell id="RRKZJ2GyWsxU2LrKrGIv-37" value="" style="rounded=0;whiteSpace=wrap;html=1;strokeColor=none;fillColor=#62A0D6;" parent="dU-f3JVg-k6u3ww8uDSU-77" vertex="1">
          <mxGeometry x="15" y="68" width="70" height="10" as="geometry" />
        </mxCell>
        <mxCell id="RRKZJ2GyWsxU2LrKrGIv-38" value="" style="rounded=0;whiteSpace=wrap;html=1;strokeColor=none;fillColor=#62A0D6;" parent="dU-f3JVg-k6u3ww8uDSU-77" vertex="1">
          <mxGeometry x="15" y="81" width="70" height="10" as="geometry" />
        </mxCell>
        <mxCell id="RRKZJ2GyWsxU2LrKrGIv-39" value="" style="rounded=0;whiteSpace=wrap;html=1;strokeColor=none;fillColor=#62A0D6;" parent="dU-f3JVg-k6u3ww8uDSU-77" vertex="1">
          <mxGeometry x="15" y="49" width="55" height="16" as="geometry" />
        </mxCell>
        <mxCell id="RRKZJ2GyWsxU2LrKrGIv-41" value="" style="rounded=0;whiteSpace=wrap;html=1;strokeColor=#000000;fillColor=#B3B3B3;" parent="dU-f3JVg-k6u3ww8uDSU-77" vertex="1">
          <mxGeometry x="15" y="105" width="40" height="30" as="geometry" />
        </mxCell>
        <mxCell id="RRKZJ2GyWsxU2LrKrGIv-67" style="edgeStyle=orthogonalEdgeStyle;rounded=0;orthogonalLoop=1;jettySize=auto;html=1;exitX=0;exitY=0.25;exitDx=0;exitDy=0;entryX=0;entryY=0.75;entryDx=0;entryDy=0;fontSize=7;dashed=1;" parent="dU-f3JVg-k6u3ww8uDSU-77" source="RRKZJ2GyWsxU2LrKrGIv-39" target="RRKZJ2GyWsxU2LrKrGIv-41" edge="1">
          <mxGeometry relative="1" as="geometry" />
        </mxCell>
        <mxCell id="RRKZJ2GyWsxU2LrKrGIv-44" value="" style="rounded=0;whiteSpace=wrap;html=1;strokeColor=#F36221;" parent="dU-f3JVg-k6u3ww8uDSU-77" vertex="1">
          <mxGeometry x="135" y="19" width="120" height="112" as="geometry" />
        </mxCell>
        <mxCell id="RRKZJ2GyWsxU2LrKrGIv-45" value="" style="rounded=0;whiteSpace=wrap;html=1;strokeColor=none;fillColor=#A1B119;" parent="dU-f3JVg-k6u3ww8uDSU-77" vertex="1">
          <mxGeometry x="150" y="39" width="80" height="10" as="geometry" />
        </mxCell>
        <mxCell id="RRKZJ2GyWsxU2LrKrGIv-46" value="" style="rounded=0;whiteSpace=wrap;html=1;strokeColor=none;fillColor=#A1B119;" parent="dU-f3JVg-k6u3ww8uDSU-77" vertex="1">
          <mxGeometry x="150" y="53" width="50" height="10" as="geometry" />
        </mxCell>
        <mxCell id="RRKZJ2GyWsxU2LrKrGIv-47" value="" style="rounded=0;whiteSpace=wrap;html=1;strokeColor=none;fillColor=#A1B119;" parent="dU-f3JVg-k6u3ww8uDSU-77" vertex="1">
          <mxGeometry x="150" y="67" width="90" height="10" as="geometry" />
        </mxCell>
        <mxCell id="RRKZJ2GyWsxU2LrKrGIv-48" value="" style="rounded=0;whiteSpace=wrap;html=1;strokeColor=none;fillColor=#A1B119;" parent="dU-f3JVg-k6u3ww8uDSU-77" vertex="1">
          <mxGeometry x="150" y="81" width="40" height="10" as="geometry" />
        </mxCell>
        <mxCell id="RRKZJ2GyWsxU2LrKrGIv-49" value="" style="rounded=0;whiteSpace=wrap;html=1;strokeColor=none;fillColor=#A1B119;" parent="dU-f3JVg-k6u3ww8uDSU-77" vertex="1">
          <mxGeometry x="150" y="95" width="90" height="10" as="geometry" />
        </mxCell>
        <mxCell id="RRKZJ2GyWsxU2LrKrGIv-50" value="" style="rounded=0;whiteSpace=wrap;html=1;strokeColor=none;fillColor=#A1B119;" parent="dU-f3JVg-k6u3ww8uDSU-77" vertex="1">
          <mxGeometry x="150" y="109" width="50" height="10" as="geometry" />
        </mxCell>
        <mxCell id="RRKZJ2GyWsxU2LrKrGIv-51" style="edgeStyle=orthogonalEdgeStyle;rounded=0;orthogonalLoop=1;jettySize=auto;html=1;exitX=1;exitY=0.25;exitDx=0;exitDy=0;entryX=0.5;entryY=0;entryDx=0;entryDy=0;" parent="dU-f3JVg-k6u3ww8uDSU-77" source="RRKZJ2GyWsxU2LrKrGIv-39" target="RRKZJ2GyWsxU2LrKrGIv-44" edge="1">
          <mxGeometry x="475" y="487" as="geometry">
            <Array as="points">
              <mxPoint x="103" y="53" />
              <mxPoint x="103" y="4" />
              <mxPoint x="195" y="4" />
            </Array>
          </mxGeometry>
        </mxCell>
        <mxCell id="RRKZJ2GyWsxU2LrKrGIv-56" value="&lt;font style=&quot;font-size: 10px;&quot;&gt;Adapter&amp;nbsp;&lt;/font&gt;&lt;font style=&quot;font-size: 10px;&quot;&gt;plugin&lt;/font&gt;" style="text;html=1;strokeColor=none;fillColor=none;align=center;verticalAlign=middle;whiteSpace=wrap;rounded=0;fontSize=10;" parent="dU-f3JVg-k6u3ww8uDSU-77" vertex="1">
          <mxGeometry x="155" y="23" width="80" height="10" as="geometry" />
        </mxCell>
        <mxCell id="RRKZJ2GyWsxU2LrKrGIv-57" value="&lt;font style=&quot;font-size: 10px;&quot;&gt;plugins&lt;/font&gt;" style="text;html=1;strokeColor=none;fillColor=none;align=center;verticalAlign=middle;whiteSpace=wrap;rounded=0;fontSize=10;" parent="dU-f3JVg-k6u3ww8uDSU-77" vertex="1">
          <mxGeometry x="12.5" y="115" width="45" height="10" as="geometry" />
        </mxCell>
        <mxCell id="RRKZJ2GyWsxU2LrKrGIv-73" value="&lt;font style=&quot;font-size: 10px;&quot;&gt;Callback&lt;/font&gt;" style="text;html=1;strokeColor=none;fillColor=none;align=center;verticalAlign=middle;whiteSpace=wrap;rounded=0;fontSize=10;" parent="dU-f3JVg-k6u3ww8uDSU-77" vertex="1">
          <mxGeometry x="12.5" y="52.25" width="60" height="9.5" as="geometry" />
        </mxCell>
        <mxCell id="dU-f3JVg-k6u3ww8uDSU-78" value="Wrapper:&lt;br&gt;adapter calls solver and preCICE" style="text;html=1;align=center;verticalAlign=middle;whiteSpace=wrap;rounded=0;fontStyle=1" vertex="1" parent="1">
          <mxGeometry x="195" y="430" width="196.25" height="30" as="geometry" />
        </mxCell>
        <mxCell id="dU-f3JVg-k6u3ww8uDSU-79" value="" style="group" vertex="1" connectable="0" parent="1">
          <mxGeometry x="140" y="650" width="610" height="20" as="geometry" />
        </mxCell>
        <mxCell id="dU-f3JVg-k6u3ww8uDSU-27" value="" style="rounded=0;whiteSpace=wrap;html=1;fillColor=default;strokeColor=light-dark(#77767b, #ededed);" vertex="1" parent="dU-f3JVg-k6u3ww8uDSU-79">
          <mxGeometry width="610" height="20" as="geometry" />
        </mxCell>
        <mxCell id="dU-f3JVg-k6u3ww8uDSU-20" value="" style="group" vertex="1" connectable="0" parent="dU-f3JVg-k6u3ww8uDSU-79">
          <mxGeometry x="10" y="3" width="125" height="14" as="geometry" />
        </mxCell>
        <mxCell id="dU-f3JVg-k6u3ww8uDSU-1" value="" style="rounded=0;whiteSpace=wrap;html=1;fillColor=#62A0D6;strokeColor=none;" vertex="1" parent="dU-f3JVg-k6u3ww8uDSU-20">
          <mxGeometry y="2" width="20" height="10" as="geometry" />
        </mxCell>
        <mxCell id="dU-f3JVg-k6u3ww8uDSU-2" value="Solver code lines" style="text;html=1;align=left;verticalAlign=middle;whiteSpace=wrap;rounded=0;fontSize=10;" vertex="1" parent="dU-f3JVg-k6u3ww8uDSU-20">
          <mxGeometry x="30" width="95" height="14" as="geometry" />
        </mxCell>
        <mxCell id="dU-f3JVg-k6u3ww8uDSU-22" value="" style="group" vertex="1" connectable="0" parent="dU-f3JVg-k6u3ww8uDSU-79">
          <mxGeometry x="305" y="3" width="145" height="14" as="geometry" />
        </mxCell>
        <mxCell id="dU-f3JVg-k6u3ww8uDSU-5" value="" style="rounded=0;whiteSpace=wrap;html=1;fillColor=#A1B119;strokeColor=none;" vertex="1" parent="dU-f3JVg-k6u3ww8uDSU-22">
          <mxGeometry y="2" width="20" height="10" as="geometry" />
        </mxCell>
        <mxCell id="dU-f3JVg-k6u3ww8uDSU-6" value="preCICE API code lines" style="text;html=1;align=left;verticalAlign=middle;whiteSpace=wrap;rounded=0;fontSize=10;" vertex="1" parent="dU-f3JVg-k6u3ww8uDSU-22">
          <mxGeometry x="30" width="115" height="14" as="geometry" />
        </mxCell>
        <mxCell id="dU-f3JVg-k6u3ww8uDSU-30" value="" style="group" vertex="1" connectable="0" parent="dU-f3JVg-k6u3ww8uDSU-79">
          <mxGeometry x="150.5" y="3" width="139" height="14" as="geometry" />
        </mxCell>
        <mxCell id="dU-f3JVg-k6u3ww8uDSU-3" value="" style="rounded=0;whiteSpace=wrap;html=1;fillColor=#F36221;strokeColor=none;" vertex="1" parent="dU-f3JVg-k6u3ww8uDSU-30">
          <mxGeometry y="2" width="20" height="10" as="geometry" />
        </mxCell>
        <mxCell id="dU-f3JVg-k6u3ww8uDSU-4" value="Adapter code lines" style="text;html=1;align=left;verticalAlign=middle;whiteSpace=wrap;rounded=0;fontSize=10;" vertex="1" parent="dU-f3JVg-k6u3ww8uDSU-30">
          <mxGeometry x="30" width="109" height="14" as="geometry" />
        </mxCell>
      </root>
    </mxGraphModel>
  </diagram>
</mxfile>
